M48
;DRILL file {Pcbnew (2013-jul-07)-stable} date Mon 02 Mar 2015 16:16:55 MSK
;FORMAT={3:3/ absolute / metric / keep zeros}
FMAT,2
METRIC,TZ
T1C0.800
T2C0.800
T3C1.000
T4C1.500
T5C1.501
T6C4.000
T7C5.000
%
G90
G05
M71
T1
X129286Y-076708
X131064Y-070612
X131318Y-181610
X142748Y-171196
X143510Y-069596
X144018Y-081280
X146812Y-079248
X147590Y-194945
X148082Y-171704
X149590Y-194945
X150622Y-075946
X151638Y-084582
X151638Y-146304
X157734Y-118872
X170180Y-124968
X173736Y-124206
X173736Y-186944
X181610Y-140716
X182880Y-168910
X184150Y-170942
X193564Y-194818
X195564Y-194818
T2
X137160Y-179705
X137160Y-187325
X139700Y-179705
X139700Y-187325
X142240Y-179705
X142240Y-187325
X144780Y-179705
X144780Y-187325
X147320Y-179705
X147320Y-187325
X149860Y-179705
X149860Y-187325
X152400Y-179705
X152400Y-187325
X157417Y-100267
X162497Y-100267
X165036Y-100267
X167576Y-100267
X170117Y-100267
X183515Y-179705
X183515Y-187325
X186055Y-179705
X186055Y-187325
X188595Y-179705
X188595Y-187325
X191135Y-179705
X191135Y-187325
X193675Y-179705
X193675Y-187325
X196215Y-179705
X196215Y-187325
X198755Y-179705
X198755Y-187325
X278130Y-076200
X278130Y-083820
X280670Y-076200
X280670Y-083820
X283210Y-076200
X283210Y-083820
X285750Y-076200
X285750Y-083820
T3
X105410Y-123190
X105410Y-125730
X105410Y-161290
X105410Y-163830
X105410Y-166370
X105410Y-168910
X105410Y-179070
X105410Y-181610
X105410Y-184150
X105410Y-186690
X105410Y-189230
X105410Y-191770
X135890Y-214630
X138430Y-214630
X140970Y-214630
X142240Y-200660
X157480Y-200660
X158750Y-214630
X161290Y-214630
X163830Y-214630
X180340Y-214630
X182880Y-214630
X185420Y-214630
X187960Y-200660
X203200Y-200660
X203200Y-214630
X205740Y-214630
X208280Y-214630
X304165Y-095250
X304165Y-097790
X304165Y-100330
T4
X116840Y-057150
X132080Y-057150
T5
X121920Y-057150
X127000Y-057150
X173355Y-057150
X178435Y-057150
X191770Y-057150
X196850Y-057150
X201930Y-057150
X207010Y-057150
X212090Y-057150
X246380Y-057150
X251460Y-057150
X256540Y-057150
X261620Y-057150
X266700Y-057150
X303530Y-160020
X303530Y-165100
X303530Y-170180
X303530Y-175260
X303530Y-180340
X303530Y-185420
X304165Y-077470
X304165Y-082550
T6
X235640Y-115625
X235640Y-201625
X277640Y-115625
X277640Y-201625
T7
X102520Y-054895
X102520Y-139895
X102520Y-214895
X228520Y-054895
X306520Y-054895
X306520Y-134895
X306520Y-214895
T2
X154876Y-100267G85X154876Y-100267
G05
T0
M30
